<svg xmlns="http://www.w3.org/2000/svg" xmlns:xlink="http://www.w3.org/1999/xlink" width="427" height="312" viewBox="0 0 427 312">
  <defs>
    <filter id="Rectangle_2260" x="0" y="0" width="427" height="312" filterUnits="userSpaceOnUse">
      <feOffset dy="3" input="SourceAlpha"/>
      <feGaussianBlur stdDeviation="20" result="blur"/>
      <feFlood flood-color="#fbc120" flood-opacity="0.098"/>
      <feComposite operator="in" in2="blur"/>
      <feComposite in="SourceGraphic"/>
    </filter>
  </defs>
  <g id="britvic" transform="translate(60 57)">
    <g transform="matrix(1, 0, 0, 1, -60, -57)" filter="url(#Rectangle_2260)">
      <g id="Rectangle_2260-2" data-name="Rectangle 2260" transform="translate(60 57)" fill="#fff" stroke="#fbc120" stroke-width="0.5">
        <path d="M60,0H307a0,0,0,0,1,0,0V132a60,60,0,0,1-60,60H0a0,0,0,0,1,0,0V60A60,60,0,0,1,60,0Z" stroke="none"/>
        <path d="M60,.25H306.5a.25.25,0,0,1,.25.25V132A59.75,59.75,0,0,1,247,191.75H.5a.25.25,0,0,1-.25-.25V60A59.75,59.75,0,0,1,60,.25Z" fill="none"/>
      </g>
    </g>
    <g id="Group_870" data-name="Group 870" transform="translate(47 64)">
      <path id="Path_682" data-name="Path 682" d="M2.468,86.171a2.23,2.23,0,0,0-1.321-2.219C.9,83.846.645,83.757.71,83.4c.075-.407.4-.277.631-.277q7.26-.011,14.52,0c2.134,0,4.272-.064,6.4.055a8.034,8.034,0,0,1,6.617,3.391,7.834,7.834,0,0,1-.595,9.262,6.729,6.729,0,0,1-2.1,1.458c-.161.075-.32.159-.3.383.017.2.177.231.323.275a6.3,6.3,0,0,1,4.552,5.514,8.027,8.027,0,0,1-2.506,7.67,5.7,5.7,0,0,1-3.959,1.538c-7.48-.017-14.961,0-22.441,0-.2,0-.4,0-.594-.005-.166-.008-.379.048-.434-.191a.451.451,0,0,1,.256-.546,4.283,4.283,0,0,0,.616-.379,2.185,2.185,0,0,0,.91-1.811q0-5.907,0-11.813c-.041,0-.1-7.831-.137-11.746m13.22,14.585c0-.041-3.465-.044-5.178-.054-.367,0-.627.01-.621.506.022,1.825.015,3.65,0,5.475,0,.337.093.454.448.457,3.363.024,6.726.087,10.089.094a3.306,3.306,0,0,0,3.219-3.281,2.964,2.964,0,0,0-3.114-3.115c-1.626-.036-3.218-.082-4.845-.082M15.5,94.738v.021q2.439,0,4.877,0a2.453,2.453,0,0,0,2.515-1.907c.528-1.88-.533-3.661-2.258-3.692-3.4-.062-6.81-.07-10.215-.113-.383,0-.535.079-.528.507q.04,2.306,0,4.614c-.009.47.147.588.6.581,1.669-.026,3.34-.01,5.01-.01" transform="translate(-0.507 -60.244)" fill="#4a4f55" fill-rule="evenodd"/>
      <path id="Path_683" data-name="Path 683" d="M166.151,112.606c-.087.185-.188.143-.265.143-3.322,0-6.644,0-9.966.016-.525,0-.663-.089-.414-.605a1.689,1.689,0,0,0-.346-1.78c-1.616-2.328-3.313-4.607-4.793-7.02a3.033,3.033,0,0,0-3.384-1.738,10.031,10.031,0,0,1-1.845.012c-.338-.009-.461.115-.459.458.01,2.574-.006,5.148.013,7.723a2.536,2.536,0,0,0,1.276,2.044c.219.156.479.274.4.6-.1.4-.435.213-.662.214q-4.686.023-9.372.011c-.235,0-.57.157-.694-.191-.133-.377.2-.476.44-.622a2.68,2.68,0,0,0,1.376-2.51c-.039-7.079-.042-14.16-.058-21.239,0-.682.012-1.366-.038-2.045a2.237,2.237,0,0,0-1.438-2.228c-.32-.11-.322-.321-.292-.567.037-.3.283-.221.465-.221,6.733,0,13.467-.079,20.2.024a9.11,9.11,0,0,1,7.778,4.01,10.1,10.1,0,0,1-.516,11.6,7.892,7.892,0,0,1-4.823,2.625c-.947.173-1.03.4-.468,1.178,2.12,2.94,4.365,5.792,6.3,8.864a3.128,3.128,0,0,0,1.595,1.241M150.456,95.349v-.034c1.758,0,3.515.007,5.273,0a2.512,2.512,0,0,0,2.575-1.671,3.346,3.346,0,0,0-3.358-4.56c-3.252-.031-6.5-.019-9.757-.05-.42,0-.521.119-.517.516.017,1.736.028,3.472-.008,5.208-.011.529.189.61.65.6,1.713-.023,3.428-.009,5.142-.009" transform="translate(-98.303 -60.194)" fill="#4a4f55" fill-rule="evenodd"/>
      <path id="Path_684" data-name="Path 684" d="M670.027,91.629a7.586,7.586,0,0,0,1.117,4.662c2.051,3.286,4.4,5.128,8.653,4.594a10.906,10.906,0,0,0,7.16-3.73c.372-.438.633-.4,1.014-.051,1.116,1.034,2.237,2.064,3.386,3.061a.756.756,0,0,1,.127,1.222,14.9,14.9,0,0,1-8.66,5.412,18.684,18.684,0,0,1-4.751.55,13.6,13.6,0,0,1-6.018-1.384,35.435,35.435,0,0,1-3.268-1.748A20.75,20.75,0,0,1,667,102.67a13.884,13.884,0,0,1-4.429-7.291,16.246,16.246,0,0,1-.447-3.3,13.758,13.758,0,0,1,1.22-6.672,14.648,14.648,0,0,1,2.666-4.246,18.157,18.157,0,0,1,6.374-4.5,17.329,17.329,0,0,1,11.552-.254,17.612,17.612,0,0,1,7.048,3.8c1.314,1.171,1.348,1.206.144,2.446-1.463,1.506-2.944,2.994-4.424,4.483-.133.133-.335.336-.461.308-.233-.052-.224-.336-.247-.555-.276-2.526-1.874-3.857-4.173-4.445a11.457,11.457,0,0,0-4.367-.25,7.529,7.529,0,0,0-4.4,2.071,11.477,11.477,0,0,0-2.21,3.111,8.385,8.385,0,0,0-.822,4.25" transform="translate(-479.967 -54.762)" fill="#4a4f55" fill-rule="evenodd"/>
      <path id="Path_685" data-name="Path 685" d="M477.535,113.664H463.16a2.111,2.111,0,0,0,.992-3.007c-1.022-2.667-2.1-5.312-3.187-7.955-2.027-4.939-4.067-9.872-6.283-14.73a7.314,7.314,0,0,0-2.408-3.173H463.1c0,.046.027.108.009.124-1.158,1.018-1.246,1.241-.662,2.722q3.121,7.909,6.286,15.8c.367.918.733,1.837,1.114,2.75.088.211.125.553.405.536.257-.016.3-.344.384-.564q1.77-4.545,3.536-9.09c1.169-3.011,2.324-6.027,3.51-9.031a2.467,2.467,0,0,0-.616-3.15c-.106-.087-.219-.18-.163-.325.086-.226.3-.135.46-.135q4.356,0,8.712,0c.484,0,.968,0,1.452,0,.129,0,.286-.006.308.168.015.115-.078.192-.175.257a8.941,8.941,0,0,0-3.162,4.582c-2.284,6-4.6,11.98-6.906,17.969-.418,1.087-.845,2.17-1.247,3.263-.479,1.3-.185,2.034,1.195,2.991" transform="translate(-327.867 -61.196)" fill="#4a4f55" fill-rule="evenodd"/>
      <path id="Path_686" data-name="Path 686" d="M354.721,112.8h-11.3c.424-.368.839-.459,1.137-.741a3.745,3.745,0,0,0,1.022-2.9c.016-3.1.005-6.2,0-9.305-.006-3.167-.034-6.335-.014-9.5,0-.586-.161-.749-.739-.736-2.045.045-4.091.032-6.136.055a2.8,2.8,0,0,0-2.88,1.553.3.3,0,0,1-.365.2c-.188-.045-.224-.194-.221-.356.012-.593.038-1.187.04-1.78.007-1.848.024-3.7,0-5.543-.007-.5.157-.627.64-.627q13.364.019,26.728,0c.479,0,.709.077.7.642-.042,2.265-.031,4.531-.047,6.8,0,.18.088.443-.174.507s-.278-.208-.37-.372a2.114,2.114,0,0,0-1.941-1.048c-2.616-.045-5.235-.026-7.852-.058-.51-.006-.435.3-.434.6q.021,6.038.044,12.076c.006,2.288,0,4.576,0,6.863a3.531,3.531,0,0,0,2.157,3.672" transform="translate(-243.015 -60.256)" fill="#4a4f55" fill-rule="evenodd"/>
      <path id="Path_687" data-name="Path 687" d="M77.6,226.259q-38.354,0-76.708-.007c-.278,0-.706.183-.8-.226a2.908,2.908,0,0,1,.03-1.557c.054-.167.3-.142.48-.142.594,0,1.188.007,1.782.007q75.916,0,151.831,0c.305,0,.78-.167.865.24a3.29,3.29,0,0,1-.03,1.565c-.05.174-.262.114-.411.114H77.6" transform="translate(0 -162.606)" fill="#4a4f55" fill-rule="evenodd"/>
      <path id="Path_688" data-name="Path 688" d="M603.476,86.826a3.4,3.4,0,0,0-1.52-3.289c-.13-.078-.279-.179-.221-.361.063-.2.256-.135.4-.135q4.851-.008,9.7,0c.154,0,.389-.092.445.152.06.262-.192.235-.34.3-1.207.524-1.42,1.609-1.459,2.732-.055,1.582-.034,3.167-.032,4.751q.007,8.547.023,17.094a5.5,5.5,0,0,0,.715,3.037,2.863,2.863,0,0,0,.954.984c.156.091.329.181.291.391-.051.28-.306.207-.482.212-.439.013-.88-.014-1.319-.011q-4.19.024-8.379.052c-.242,0-.484-.01-.726-.01a.174.174,0,0,1-.187-.147.2.2,0,0,1,.136-.262c1.738-.453,1.871-1.9,2.031-3.314a14.065,14.065,0,0,0,.022-1.583q0-4.917,0-9.834c-.019,0-.069-7.171-.051-10.756" transform="translate(-435.923 -60.184)" fill="#4a4f55" fill-rule="evenodd"/>
      <path id="Path_689" data-name="Path 689" d="M280.7,113.144H269.35c.221-.328.54-.328.756-.479a3.566,3.566,0,0,0,1.335-3.084c.066-1.757.047-3.518.049-5.277q.009-8.807.008-17.614a3.671,3.671,0,0,0-1.561-3.121h9.845c0,.019.027.089.013.1a2.985,2.985,0,0,0-1.288,2.792q.013,10.885.032,21.77a6.841,6.841,0,0,0,.678,3.258,6.084,6.084,0,0,0,1.488,1.656" transform="translate(-195.259 -60.583)" fill="#4a4f55" fill-rule="evenodd"/>
      <path id="Path_690" data-name="Path 690" d="M700.406,12.671a9.846,9.846,0,0,1,3.764-7.594,22.59,22.59,0,0,1,8.167-3.993c1.24-.38,2.489-.723,3.757-.994.892-.191.928-.145.732.783a38.875,38.875,0,0,1-2.049,6.733,21.635,21.635,0,0,1-3.686,6.263,7.424,7.424,0,0,1-9.636,1.757,1.565,1.565,0,0,1-.934-1.374,10.889,10.889,0,0,1-.113-1.58" transform="translate(-507.74 0)" fill="#4a4f55" fill-rule="evenodd"/>
      <path id="Path_691" data-name="Path 691" d="M667.483,30.967a2.354,2.354,0,0,1-1.591,2.06c-.356.087-.472-.174-.619-.374-.935-1.276-1.851-2.566-2.907-3.747a16.111,16.111,0,0,0-5.8-4.56,4.831,4.831,0,0,0-1.526-.378.717.717,0,0,1-.734-.887,18.674,18.674,0,0,0,.141-4.862c-.064-.426.263-.244.439-.2a11.013,11.013,0,0,1,3.866,1.788,26.014,26.014,0,0,1,8.344,9.851,2.775,2.775,0,0,1,.384,1.313" transform="translate(-474.323 -13.007)" fill="#4a4f55" fill-rule="evenodd"/>
    </g>
  </g>
</svg>
