<svg xmlns="http://www.w3.org/2000/svg" xmlns:xlink="http://www.w3.org/1999/xlink" width="1920.004" height="1951.019" viewBox="0 0 1920.004 1951.019">
  <defs>
    <linearGradient id="linear-gradient" x1="0.352" y1="0.24" x2="0.676" y2="0.813" gradientUnits="objectBoundingBox">
      <stop offset="0" stop-color="#fbc120" stop-opacity="0.098"/>
      <stop offset="1" stop-color="#3e2b47" stop-opacity="0.102"/>
    </linearGradient>
  </defs>
  <g id="clients_background" data-name="clients background" transform="translate(0.002 -3170.61)">
    <path id="Union_226" data-name="Union 226" d="M0,1519.019H399.9a406.641,406.641,0,0,0-40.8,2.065,401.256,401.256,0,0,0-39.716,6.062c-12.886,2.637-25.784,5.953-38.334,9.857-12.409,3.86-24.774,8.385-36.751,13.45A401.176,401.176,0,0,0,31.434,1763.321c-5.065,11.976-9.591,24.34-13.451,36.751-3.9,12.55-7.22,25.447-9.857,38.334a400.687,400.687,0,0,0-6.061,39.716A406.31,406.31,0,0,0,0,1919.019Zm0,0V947.9H0V400H1520c220.914,0,400,179.086,400,400V988.814h0v130.2c0,220.914-179.087,400-400,400ZM0,.1H0L0,0H0V.1A405.54,405.54,0,0,0,2.066,40.9,401.218,401.218,0,0,0,8.128,80.614c2.637,12.887,5.953,25.785,9.857,38.334,3.859,12.409,8.384,24.773,13.451,36.75a400.018,400.018,0,0,0,36.879,67.946,402.917,402.917,0,0,0,48.844,59.2,402.916,402.916,0,0,0,59.2,48.844A400.05,400.05,0,0,0,244.3,368.565c11.977,5.066,24.341,9.591,36.75,13.451,12.55,3.9,25.447,7.22,38.334,9.857a401.133,401.133,0,0,0,39.716,6.061c13.119,1.332,26.5,2.027,39.778,2.064L0,400Z" transform="translate(-0.002 3202.61)" fill="#fbc120"/>
    <path id="Union_229" data-name="Union 229" d="M0,1519.019H399.9a406.641,406.641,0,0,0-40.8,2.065,401.256,401.256,0,0,0-39.716,6.062c-12.886,2.637-25.784,5.953-38.334,9.857-12.409,3.86-24.774,8.385-36.751,13.45A401.176,401.176,0,0,0,31.434,1763.321c-5.065,11.976-9.591,24.34-13.451,36.751-3.9,12.55-7.22,25.447-9.857,38.334a400.687,400.687,0,0,0-6.061,39.716A406.31,406.31,0,0,0,0,1919.019Zm0,0V947.9H0V400H1520c220.914,0,400,179.086,400,400V988.814h0v130.2c0,220.914-179.087,400-400,400ZM0,.1H0L0,0H0V.1A405.54,405.54,0,0,0,2.066,40.9,401.218,401.218,0,0,0,8.128,80.614c2.637,12.887,5.953,25.785,9.857,38.334,3.859,12.409,8.384,24.773,13.451,36.75a400.018,400.018,0,0,0,36.879,67.946,402.917,402.917,0,0,0,48.844,59.2,402.916,402.916,0,0,0,59.2,48.844A400.05,400.05,0,0,0,244.3,368.565c11.977,5.066,24.341,9.591,36.75,13.451,12.55,3.9,25.447,7.22,38.334,9.857a401.133,401.133,0,0,0,39.716,6.061c13.119,1.332,26.5,2.027,39.778,2.064L0,400Z" transform="translate(0 3170.61)" fill="#fff"/>
    <path id="Union_223" data-name="Union 223" d="M0,1519.019H399.9a406.641,406.641,0,0,0-40.8,2.065,401.256,401.256,0,0,0-39.716,6.062c-12.886,2.637-25.784,5.953-38.334,9.857-12.409,3.86-24.774,8.385-36.751,13.45A401.176,401.176,0,0,0,31.434,1763.321c-5.065,11.976-9.591,24.34-13.451,36.751-3.9,12.55-7.22,25.447-9.857,38.334a400.687,400.687,0,0,0-6.061,39.716A406.31,406.31,0,0,0,0,1919.019Zm0,0V947.9H0V400H1520c220.914,0,400,179.086,400,400V988.814h0v130.2c0,220.914-179.087,400-400,400ZM0,.1H0L0,0H0V.1A405.54,405.54,0,0,0,2.066,40.9,401.218,401.218,0,0,0,8.128,80.614c2.637,12.887,5.953,25.785,9.857,38.334,3.859,12.409,8.384,24.773,13.451,36.75a400.018,400.018,0,0,0,36.879,67.946,402.917,402.917,0,0,0,48.844,59.2,402.916,402.916,0,0,0,59.2,48.844A400.05,400.05,0,0,0,244.3,368.565c11.977,5.066,24.341,9.591,36.75,13.451,12.55,3.9,25.447,7.22,38.334,9.857a401.133,401.133,0,0,0,39.716,6.061c13.119,1.332,26.5,2.027,39.778,2.064L0,400Z" transform="translate(0 3170.61)" fill="url(#linear-gradient)"/>
  </g>
</svg>
