<svg xmlns="http://www.w3.org/2000/svg" xmlns:xlink="http://www.w3.org/1999/xlink" width="427" height="312" viewBox="0 0 427 312">
  <defs>
    <filter id="Rectangle_2261" x="0" y="0" width="427" height="312" filterUnits="userSpaceOnUse">
      <feOffset dy="3" input="SourceAlpha"/>
      <feGaussianBlur stdDeviation="20" result="blur"/>
      <feFlood flood-color="#fbc120" flood-opacity="0.102"/>
      <feComposite operator="in" in2="blur"/>
      <feComposite in="SourceGraphic"/>
    </filter>
  </defs>
  <g id="gm" transform="translate(60 57)">
    <g transform="matrix(1, 0, 0, 1, -60, -57)" filter="url(#Rectangle_2261)">
      <g id="Rectangle_2261-2" data-name="Rectangle 2261" transform="translate(60 57)" fill="#fff" stroke="#fbc120" stroke-width="0.5">
        <path d="M60,0H307a0,0,0,0,1,0,0V132a60,60,0,0,1-60,60H0a0,0,0,0,1,0,0V60A60,60,0,0,1,60,0Z" stroke="none"/>
        <path d="M60,.25H306.5a.25.25,0,0,1,.25.25V132A59.75,59.75,0,0,1,247,191.75H.5a.25.25,0,0,1-.25-.25V60A59.75,59.75,0,0,1,60,.25Z" fill="none"/>
      </g>
    </g>
    <g id="Group_2180" data-name="Group 2180" transform="translate(-4339 -3993)">
      <rect id="Rectangle_1764" data-name="Rectangle 1764" width="4.127" height="19.828" transform="translate(4582.461 4062.566)" fill="#1a478d"/>
      <path id="Path_3601" data-name="Path 3601" d="M45.986,48.259c-1.006,2.8-2.114,5.552-3.087,8.387a29.078,29.078,0,0,1,8.74,5.452c-1.527,3.892-3.053,7.783-4.647,11.642a24.93,24.93,0,0,0-8.387-5.62q-2.516,6.819-5.032,13.655h-13.2q2.952-7.9,5.871-15.8a12.752,12.752,0,0,0-11,5.72A7.794,7.794,0,0,0,13.9,76.927a14.244,14.244,0,0,0,5.251,10.065,25.786,25.786,0,0,0,14.661,5.167A32.91,32.91,0,0,0,46.624,90.8a19.747,19.747,0,0,0,9.528-6.492A20.687,20.687,0,0,0,60.178,70.05c-.352-3.841-1.275-7.6-1.979-11.373a69.282,69.282,0,0,1-1.493-12.933,41.9,41.9,0,0,1-10.719,2.6M31.929,22.074a8.616,8.616,0,0,0,0,7.247,12.029,12.029,0,0,0,5.67,5.955c.52-1.191.956-2.432,1.426-3.64a25.754,25.754,0,0,0,1.845-5.9A6.456,6.456,0,0,0,39.729,20.7,4.647,4.647,0,0,0,34.8,19.339a4.881,4.881,0,0,0-2.835,2.7m3.355-15.7h3.07a17.95,17.95,0,0,1,8.639,2.835,15.1,15.1,0,0,1,6.156,8.773,22.3,22.3,0,0,1-.956,13.42c-.52,1.493-1.074,2.986-1.677,4.479a13.694,13.694,0,0,0,6.71-3.69,15,15,0,0,0,3.506-7.18h13.42a52.709,52.709,0,0,0-3.925,19.341c0,7.666,2.835,14.946,3.607,22.529a39.207,39.207,0,0,1-1.074,15.382,30,30,0,0,1-7.18,12.464,33.556,33.556,0,0,1-12.128,7.951,47.772,47.772,0,0,1-18.318,3,42.334,42.334,0,0,1-21.287-5.754,29.124,29.124,0,0,1-12.3-14.477A24.5,24.5,0,0,1,2.2,66.594,22.172,22.172,0,0,1,12.655,56.143,33.683,33.683,0,0,1,30.7,53.409c.856-2.214,1.677-4.445,2.567-6.71a25.278,25.278,0,0,1-12.5-10.837,21,21,0,0,1,2.718-23.9,17.7,17.7,0,0,1,11.742-5.62" transform="translate(4398 4038.295)" fill="#1a478d"/>
      <path id="Path_3602" data-name="Path 3602" d="M45.887,24.271c6.71-5.15,10.233-8.035,12.43-11.86C61.4,7.044,59.542,2.5,55.616.669a7.4,7.4,0,0,0-9.729,3.506A7.4,7.4,0,0,0,36.158.669c-3.909,1.778-5.787,6.324-2.7,11.742,2.2,3.825,5.636,6.71,12.43,11.86" transform="translate(4419.622 4034.001)" fill="#e2231a"/>
      <path id="Path_3603" data-name="Path 3603" d="M51.073,27.2h0a9.763,9.763,0,0,1,9.694-9.832c.089,0,.179,0,.27,0a10.437,10.437,0,0,1,7.465,2.6l-2.617,3.087a7.008,7.008,0,0,0-5.032-1.929A5.7,5.7,0,0,0,55.4,27.044a5.7,5.7,0,0,0,5.375,6.014c.127.007.253.01.379.008A6.708,6.708,0,0,0,65.1,31.925V29.208h-4.21V25.6H69.14v8.253a12.317,12.317,0,0,1-8.119,3.019,9.512,9.512,0,0,1-10.053-8.938c-.017-.28-.02-.562-.012-.842" transform="translate(4432.519 4045.755)" fill="#1a478d"/>
      <path id="Path_3604" data-name="Path 3604" d="M73.813,26.4a3.12,3.12,0,0,0-3.07-3.087A3.256,3.256,0,0,0,67.59,26.4ZM63.547,27.621h0a7.245,7.245,0,0,1,6.9-7.574c.1-.005.2-.008.294-.008,4.865,0,7.1,3.774,7.1,7.9v1.09H67.774a3.356,3.356,0,0,0,3.556,2.852,4.78,4.78,0,0,0,3.539-1.493l2.365,2.1a7.682,7.682,0,0,1-13.554-4.814" transform="translate(4441.046 4047.577)" fill="#1a478d"/>
      <path id="Path_3605" data-name="Path 3605" d="M73.884,20.277h4.127v2.063a5.147,5.147,0,0,1,4.261-2.332c3.12,0,4.949,2.063,4.949,5.4v9.427H83.093V26.719c0-1.963-.923-2.969-2.5-2.969s-2.583,1.006-2.583,2.969v8.119H73.884V20.277" transform="translate(4448.055 4047.556)" fill="#1a478d"/>
      <path id="Path_3606" data-name="Path 3606" d="M93.823,26.4a3.12,3.12,0,0,0-3.07-3.087A3.256,3.256,0,0,0,87.6,26.4ZM83.557,27.621h0a7.245,7.245,0,0,1,6.9-7.574c.1-.005.2-.008.294-.008,4.865,0,7.1,3.774,7.1,7.9v1.09H87.784a3.356,3.356,0,0,0,3.556,2.852,4.763,4.763,0,0,0,3.523-1.493l2.365,2.1a7.682,7.682,0,0,1-13.554-4.814" transform="translate(4454.603 4047.577)" fill="#1a478d"/>
      <path id="Path_3607" data-name="Path 3607" d="M93.9,20.282h4.127v2.936a4.5,4.5,0,0,1,4.647-3.2v4.311h-.218c-2.734,0-4.429,1.677-4.429,5.133v5.385H93.9V20.282" transform="translate(4461.618 4047.552)" fill="#1a478d"/>
      <path id="Path_3608" data-name="Path 3608" d="M109.235,29.617v-.738a6.382,6.382,0,0,0-2.634-.537c-1.761,0-2.852.7-2.852,2.013,0,1.107.923,1.761,2.248,1.761,1.929,0,3.238-1.057,3.238-2.55m-9.478.956h0c0-3.17,2.416-4.647,5.871-4.647a10.358,10.358,0,0,1,3.556.6v-.218c0-1.677-1.057-2.667-3.12-2.667a10.684,10.684,0,0,0-4.026.788L101,21.23a12.834,12.834,0,0,1,5.653-1.174,6.715,6.715,0,0,1,4.915,1.677,6.345,6.345,0,0,1,1.577,4.647v8.387h-3.992V33.19a5.6,5.6,0,0,1-4.395,1.845,4.5,4.5,0,0,1-5-3.927,4.388,4.388,0,0,1-.032-.535" transform="translate(4465.561 4047.577)" fill="#1a478d"/>
      <path id="Path_3609" data-name="Path 3609" d="M51.524,33.139h4.512l5,8.035,5-8.035h4.512V52.162h-4.16V39.748l-5.351,8.119h-.117l-5.284-8.052V52.162h-4.11Z" transform="translate(4432.906 4056.452)" fill="#1a478d"/>
      <path id="Path_3610" data-name="Path 3610" d="M65.475,37.876H69.6V52.437H65.475Zm-.1-5.267h4.345v3.674H65.374Z" transform="translate(4442.29 4056.093)" fill="#1a478d"/>
      <rect id="Rectangle_1765" data-name="Rectangle 1765" width="4.127" height="19.828" transform="translate(4515.967 4088.785)" fill="#1a478d"/>
      <rect id="Rectangle_1766" data-name="Rectangle 1766" width="4.127" height="19.828" transform="translate(4524.17 4088.785)" fill="#1a478d"/>
      <path id="Path_3611" data-name="Path 3611" d="M79.348,48.5l1.761-2.718a8.236,8.236,0,0,0,4.6,1.677c1.191,0,1.677-.436,1.677-1.09,0-.889-1.409-1.191-3.019-1.677-2.03-.6-4.345-1.543-4.345-4.378,0-2.952,2.382-4.613,5.318-4.613a10.062,10.062,0,0,1,5.435,1.677l-1.577,2.852a8.629,8.629,0,0,0-3.942-1.359c-1.006,0-1.526.436-1.526,1.006,0,.822,1.376,1.191,2.952,1.677,2.03.671,4.395,1.677,4.395,4.311,0,3.238-2.416,4.7-5.569,4.7a10.2,10.2,0,0,1-6.24-2.2" transform="translate(4451.7 4058.186)" fill="#1a478d"/>
    </g>
  </g>
</svg>
