<svg id="jde_logo" data-name="jde logo" xmlns="http://www.w3.org/2000/svg" xmlns:xlink="http://www.w3.org/1999/xlink" width="54.443" height="48.74" viewBox="0 0 54.443 48.74">
  <defs>
    <clipPath id="clip-path">
      <rect id="Rectangle_1232" data-name="Rectangle 1232" width="54.443" height="48.74" fill="#432011"/>
    </clipPath>
  </defs>
  <g id="Group_1275" data-name="Group 1275" clip-path="url(#clip-path)">
    <path id="Path_3148" data-name="Path 3148" d="M466.034,466.329c.245-.6.506-1.16.71-1.742a14.411,14.411,0,0,0,.829-4.517c.066-3.647.064-7.3.085-10.943.005-.892-.008-1.783-.012-2.675,0-.08,0-.16,0-.266h.457c2.233,0,4.466-.029,6.7.008a9.458,9.458,0,0,1,6.889,2.949A9,9,0,0,1,484,453.906a11.053,11.053,0,0,1-.882,7.053,9.317,9.317,0,0,1-6.258,5.022,11.444,11.444,0,0,1-2.987.344q-3.828,0-7.656,0h-.181m6.605-16.822a132.223,132.223,0,0,1-.351,13.432c.611,0,1.207.023,1.8,0a4.274,4.274,0,0,0,3.77-2.3,8.7,8.7,0,0,0,.942-2.948,9.312,9.312,0,0,0-.317-4.7,5.323,5.323,0,0,0-1.8-2.626,6.242,6.242,0,0,0-4.039-.861" transform="translate(-443.142 -424.258)" fill="#432011"/>
    <path id="Path_3149" data-name="Path 3149" d="M100.844,450.007a32.131,32.131,0,0,0-8.192.545v-3.746h13.333c.007.075.019.146.019.216,0,4.082.014,8.164,0,12.246a19.279,19.279,0,0,1-.814,5.683,10.585,10.585,0,0,1-5.467,6.344,16.781,16.781,0,0,1-5.239,1.712,55.641,55.641,0,0,1-6.247.589c-.08,0-.159,0-.252,0v-2.83c.518-.035,1.031-.06,1.541-.106a21.67,21.67,0,0,0,4.593-.7,8.657,8.657,0,0,0,6.134-6.569,18.571,18.571,0,0,0,.592-4.51q.007-4.307,0-8.614v-.259" transform="translate(-83.658 -424.858)" fill="#432011"/>
    <path id="Path_3150" data-name="Path 3150" d="M850.428,449.985v4.982a34.481,34.481,0,0,0,5.47-.248v3.786c-.916-.068-1.819-.162-2.725-.2s-1.814-.007-2.731-.007c-.053,1.7-.107,3.408-.162,5.154a32.994,32.994,0,0,0,7.023-.388v3.708H844.335c.115-.481.225-.957.344-1.43a20.461,20.461,0,0,0,.487-4.844q.065-6.748.107-13.5c0-.09,0-.179,0-.291H856.79v3.723a28.412,28.412,0,0,0-6.184-.469,1.666,1.666,0,0,0-.179.017" transform="translate(-802.86 -424.771)" fill="#432011"/>
    <path id="Path_3151" data-name="Path 3151" d="M3.089.065C3.2.036,3.279-.014,3.338,0A8.868,8.868,0,0,1,8.305,3.386,6.91,6.91,0,0,1,9.3,9.3a17.538,17.538,0,0,1-1.532,3.808c-.854,1.646-1.692,3.3-2.494,4.971a9.29,9.29,0,0,0-.879,3,7.051,7.051,0,0,0,1.1,4.77l.317.487c-.342-.092-.627-.163-.909-.245a6.9,6.9,0,0,1-4.874-6,11.326,11.326,0,0,1,1.083-5.766c.8-1.726,1.69-3.41,2.537-5.114A15.525,15.525,0,0,0,5.032,5.628,5.126,5.126,0,0,0,3.793.692c-.2-.206-.425-.38-.7-.626" transform="translate(0 0)" fill="#432011"/>
  </g>
</svg>
