<svg xmlns="http://www.w3.org/2000/svg" xmlns:xlink="http://www.w3.org/1999/xlink" width="427" height="312" viewBox="0 0 427 312">
  <defs>
    <filter id="Rectangle_2263" x="0" y="0" width="427" height="312" filterUnits="userSpaceOnUse">
      <feOffset dy="3" input="SourceAlpha"/>
      <feGaussianBlur stdDeviation="20" result="blur"/>
      <feFlood flood-color="#fbc120" flood-opacity="0.102"/>
      <feComposite operator="in" in2="blur"/>
      <feComposite in="SourceGraphic"/>
    </filter>
    <clipPath id="clip-path">
      <rect id="Rectangle_1232" data-name="Rectangle 1232" width="130.383" height="116.725" fill="#432011"/>
    </clipPath>
  </defs>
  <g id="jde" transform="translate(60 57)">
    <g transform="matrix(1, 0, 0, 1, -60, -57)" filter="url(#Rectangle_2263)">
      <g id="Rectangle_2263-2" data-name="Rectangle 2263" transform="translate(60 57)" fill="#fff" stroke="#fbc120" stroke-width="0.5">
        <path d="M60,0H307a0,0,0,0,1,0,0V132a60,60,0,0,1-60,60H0a0,0,0,0,1,0,0V60A60,60,0,0,1,60,0Z" stroke="none"/>
        <path d="M60,.25H306.5a.25.25,0,0,1,.25.25V132A59.75,59.75,0,0,1,247,191.75H.5a.25.25,0,0,1-.25-.25V60A59.75,59.75,0,0,1,60,.25Z" fill="none"/>
      </g>
    </g>
    <g id="jde_logo" data-name="jde logo" transform="translate(88 38)">
      <g id="Group_1275" data-name="Group 1275" clip-path="url(#clip-path)">
        <path id="Path_3148" data-name="Path 3148" d="M466.034,494.44c.587-1.43,1.211-2.778,1.7-4.172a34.513,34.513,0,0,0,1.986-10.816c.159-8.734.154-17.471.2-26.207.012-2.135-.019-4.271-.03-6.406,0-.191,0-.383,0-.638h1.094c5.347,0,10.7-.069,16.041.019a22.65,22.65,0,0,1,16.5,7.062,21.551,21.551,0,0,1,5.526,11.407,26.47,26.47,0,0,1-2.113,16.891,22.314,22.314,0,0,1-14.986,12.026,27.4,27.4,0,0,1-7.153.824q-9.167,0-18.335.01h-.433m15.819-40.286c-.1,10.753.35,21.453-.841,32.167,1.464,0,2.891.055,4.313-.01a10.236,10.236,0,0,0,9.029-5.5,20.845,20.845,0,0,0,2.256-7.059,22.3,22.3,0,0,0-.76-11.244,12.748,12.748,0,0,0-4.323-6.29c-2.9-2.115-6.244-2.129-9.674-2.061" transform="translate(-411.211 -393.688)" fill="#432011"/>
        <path id="Path_3149" data-name="Path 3149" d="M118.787,454.473c-6.614-.056-13.156-.315-19.617,1.3v-8.972H131.1c.016.179.044.349.044.518,0,9.775.033,19.551-.012,29.326a46.17,46.17,0,0,1-1.949,13.61c-2.169,6.963-6.749,11.835-13.092,15.194a40.188,40.188,0,0,1-12.548,4.1,133.241,133.241,0,0,1-14.959,1.412c-.191.009-.382,0-.6,0v-6.777c1.241-.084,2.468-.143,3.69-.255,3.7-.339,7.414-.552,11-1.681,7.874-2.478,12.689-7.776,14.689-15.732a44.475,44.475,0,0,0,1.418-10.8q.017-10.315.009-20.629v-.619" transform="translate(-77.63 -394.245)" fill="#432011"/>
        <path id="Path_3150" data-name="Path 3150" d="M858.927,454.547v11.932c4.379-.026,8.74.128,13.1-.593v9.066c-2.194-.163-4.356-.388-6.525-.468s-4.344-.018-6.541-.018c-.128,4.082-.256,8.163-.388,12.342,5.544-.016,11.194.293,16.82-.93v8.879H844.335c.276-1.152.538-2.292.824-3.425a49.005,49.005,0,0,0,1.166-11.6q.155-16.16.256-32.32c0-.214,0-.429,0-.7h27.582v8.917c-4.9-1.171-9.862-1.036-14.809-1.124a4.015,4.015,0,0,0-.427.04" transform="translate(-745.009 -394.164)" fill="#432011"/>
        <path id="Path_3151" data-name="Path 3151" d="M7.4.156c.263-.07.453-.189.6-.147a21.237,21.237,0,0,1,11.9,8.1,16.549,16.549,0,0,1,2.393,14.166,42,42,0,0,1-3.67,9.119c-2.044,3.941-4.053,7.9-5.973,11.9a22.247,22.247,0,0,0-2.106,7.178A16.886,16.886,0,0,0,13.179,61.9l.758,1.166c-.82-.22-1.5-.389-2.176-.587A16.526,16.526,0,0,1,.089,48.111,27.124,27.124,0,0,1,2.681,34.3c1.914-4.134,4.046-8.166,6.075-12.246a37.18,37.18,0,0,0,3.294-8.578c.965-4.424.257-8.447-2.967-11.821C8.613,1.164,8.065.745,7.4.156" transform="translate(0 0)" fill="#432011"/>
      </g>
    </g>
  </g>
</svg>
