<svg xmlns="http://www.w3.org/2000/svg" width="100" height="80" viewBox="0 0 100 80">
  <g id="linkedin" transform="translate(-1685 -2905)">
    <g id="Rectangle_2268" data-name="Rectangle 2268" transform="translate(1685 2905)" fill="none" stroke="#fff" stroke-width="0.5">
      <rect width="100" height="80" rx="40" stroke="none"/>
      <rect x="0.25" y="0.25" width="99.5" height="79.5" rx="39.75" fill="none"/>
    </g>
    <path id="Icon_awesome-linkedin-in" data-name="Icon awesome-linkedin-in" d="M7.051,31.5H.52V10.47H7.051ZM3.782,7.6A3.8,3.8,0,1,1,7.564,3.783,3.814,3.814,0,0,1,3.782,7.6ZM31.493,31.5H24.976V21.263c0-2.44-.049-5.569-3.4-5.569-3.4,0-3.916,2.651-3.916,5.393V31.5H11.142V10.47h6.263v2.869H17.5a6.862,6.862,0,0,1,6.179-3.4c6.609,0,7.824,4.352,7.824,10.005V31.5Z" transform="translate(1719.25 2926.25)" fill="#fff"/>
  </g>
</svg>
