<?xml version="1.0" encoding="utf-8"?>
<!-- Generator: Adobe Illustrator 28.1.0, SVG Export Plug-In . SVG Version: 6.00 Build 0)  -->
<svg version="1.1" id="Layer_1" xmlns="http://www.w3.org/2000/svg" xmlns:xlink="http://www.w3.org/1999/xlink" x="0px" y="0px"
	 viewBox="0 0 1920 844" style="enable-background:new 0 0 1920 844;" xml:space="preserve">
<style type="text/css">
	.st0{fill:none;}
	.st1{fill:#FBC120;}
	.st2{clip-path:url(#SVGID_00000152962521577700753340000003608353721656294078_);}
	.st3{fill:url(#Logo_Brand_Field_Agency_2019-84_00000173136829885677659160000011123344241543192223_);}
	.st4{fill:#FFFFFF;}
	.st5{fill:#3E2B47;}
	.st6{opacity:0.297;fill:#3E2B47;enable-background:new    ;}
</style>
<pattern  y="1183" width="1920" height="1920" patternUnits="userSpaceOnUse" id="pattern" viewBox="62 -1920 1920 1920" style="overflow:visible;">
	<g>
		<rect x="62" y="-1920" class="st0" width="1920" height="1920"/>
		
			<image style="overflow:visible;enable-background:new    ;" width="8390" height="5593" xlink:href="6A799BB8.jpg"  transform="matrix(0.3433 0 0 -0.3433 0 0)">
		</image>
	</g>
</pattern>
<path class="st1" d="M-4071.1-339V783v400c0-13.7,0.7-27.3,2.1-40.9c1.4-13.3,3.4-26.6,6.1-39.7c2.6-12.9,6-25.8,9.9-38.3
	c3.9-12.4,8.4-24.8,13.5-36.7c10.1-23.8,22.4-46.5,36.9-67.9c14.4-21.2,30.7-41.1,48.8-59.2c18.1-18.1,38-34.5,59.2-48.8
	c21.4-14.5,44.2-26.8,67.9-36.9c12-5.1,24.3-9.6,36.8-13.5c12.5-3.9,25.4-7.2,38.3-9.9c13.1-2.7,26.4-4.7,39.7-6.1
	c13.6-1.4,27.2-2.1,40.8-2.1h1120.1c220.9,0,400-179.1,400-400v-722H-4071.1z"/>
<g>
	<defs>
		<path id="SVGID_1_" d="M-4071.1,739h399.9c-13.6,0-27.2,0.7-40.8,2.1c-13.3,1.4-26.6,3.4-39.7,6.1c-12.9,2.6-25.8,6-38.3,9.9
			c-12.4,3.9-24.8,8.4-36.8,13.4c-23.8,10.1-46.5,22.4-67.9,36.9c-21.2,14.4-41.1,30.7-59.2,48.8c-18.1,18.1-34.5,38-48.8,59.2
			c-14.5,21.4-26.8,44.2-36.9,67.9c-5.1,12-9.6,24.3-13.5,36.7c-3.9,12.6-7.2,25.4-9.9,38.3c-2.7,13.1-4.7,26.4-6.1,39.7
			c-1.4,13.6-2.1,27.2-2.1,40.9V739z M-4071.1,739V-339h1920v678c0,220.9-179.1,400-400,400H-4071.1z"/>
	</defs>
	<clipPath id="SVGID_00000161631657634745926040000015033212976644633993_">
		<use xlink:href="#SVGID_1_"  style="overflow:visible;"/>
	</clipPath>
	<g id="Group_267" style="clip-path:url(#SVGID_00000161631657634745926040000015033212976644633993_);">
		
			<pattern  id="Logo_Brand_Field_Agency_2019-84_00000097493084869677255760000011222932907483726988_" xlink:href="#pattern" patternTransform="matrix(1 0 0 -1 -724.048 -21521.3301)">
		</pattern>
		
			<rect id="Logo_Brand_Field_Agency_2019-84_1_" x="-4071.1" y="-739" style="fill:url(#Logo_Brand_Field_Agency_2019-84_00000097493084869677255760000011222932907483726988_);" width="1920" height="1920"/>
	</g>
</g>
<polygon class="st1" points="0,1183 0,1183 0,1183 "/>
<g>
	<path class="st4" d="M1520,444H399.9c-13.6,0-27.2,0.7-40.8,2.1c-13.3,1.4-26.6,3.4-39.7,6.1c-12.9,2.6-25.8,6-38.3,9.9
		c-12.4,3.9-24.8,8.4-36.8,13.5c-23.8,10.1-46.5,22.4-67.9,36.9c-21.2,14.4-41.1,30.7-59.2,48.8c-18.1,18.1-34.5,38-48.8,59.2
		c-14.5,21.4-26.8,44.2-36.9,67.9c-5.1,12-9.6,24.3-13.5,36.7c-3.9,12.6-7.2,25.4-9.9,38.3c-2.7,13.1-4.7,26.4-6.1,39.7
		C0.7,816.7,0,830.3,0,844h1920V44C1920,264.9,1740.9,444,1520,444z"/>
	<path class="st1" d="M1920,0c0,220.9-179.1,400-400,400H399.9c-13.6,0-27.2,0.7-40.8,2.1c-13.3,1.4-26.6,3.4-39.7,6.1
		c-12.9,2.6-25.8,6-38.3,9.9c-12.4,3.9-24.8,8.4-36.8,13.4c-23.8,10.1-46.5,22.4-67.9,36.9c-21.2,14.4-41.1,30.7-59.2,48.8
		c-18.1,18.1-34.5,38-48.8,59.2c-14.5,21.4-26.8,44.2-36.9,67.9c-5.1,12-9.6,24.3-13.5,36.7c-3.9,12.6-7.2,25.4-9.9,38.3
		c-2.7,13.1-4.7,26.4-6.1,39.7C0.7,772.7,0,786.3,0,800v44c0-13.7,0.7-27.3,2.1-40.9c1.4-13.3,3.4-26.6,6.1-39.7
		c2.6-12.9,6-25.8,9.9-38.3c3.9-12.4,8.4-24.8,13.5-36.7c10.1-23.8,22.4-46.5,36.9-67.9c14.4-21.2,30.7-41.1,48.8-59.2
		c18.1-18.1,38-34.5,59.2-48.8c21.4-14.5,44.2-26.8,67.9-36.9c12-5.1,24.3-9.6,36.8-13.5c12.5-3.9,25.4-7.2,38.3-9.9
		c13.1-2.7,26.4-4.7,39.7-6.1c13.6-1.4,27.2-2.1,40.8-2.1H1520c220.9,0,400-179.1,400-400"/>
</g>
<rect x="-4071.1" y="-339" class="st5" width="1920" height="0"/>
<path class="st5" d="M-2084.5-339V739v400c0-13.7,0.7-27.3,2.1-40.9c1.4-13.3,3.4-26.6,6.1-39.7c2.6-12.9,6-25.8,9.9-38.3
	c3.9-12.4,8.4-24.8,13.5-36.7c10.1-23.8,22.4-46.5,36.9-67.9c14.4-21.2,30.7-41.1,48.8-59.2c18.1-18.1,38-34.5,59.2-48.8
	c21.4-14.5,44.2-26.8,67.9-36.9c12-5.1,24.3-9.6,36.8-13.4c12.5-3.9,25.4-7.2,38.3-9.9c13.1-2.7,26.4-4.7,39.7-6.1
	c13.6-1.4,27.2-2.1,40.8-2.1h1120.1c220.9,0,400-179.1,400-400v-678H-2084.5z"/>
<path id="Union_217" class="st6" d="M-3635,739h399.9c-13.6,0-27.2,0.7-40.8,2.1c-13.3,1.4-26.6,3.4-39.7,6.1
	c-12.9,2.6-25.8,6-38.3,9.9c-12.4,3.9-24.8,8.4-36.7,13.4c-23.8,10.1-46.5,22.4-67.9,36.9c-21.2,14.4-41.1,30.7-59.2,48.8
	c-18.1,18.1-34.5,38-48.8,59.2c-14.5,21.4-26.8,44.2-36.9,67.9c-5.1,12-9.6,24.3-13.5,36.7c-3.9,12.6-7.2,25.4-9.9,38.3
	c-2.7,13.1-4.7,26.4-6.1,39.7c-1.4,13.6-2.1,27.2-2.1,40.9V739z M-3635,739V-339h1920v678c0,220.9-179.1,400-400,400H-3635z"/>
</svg>
