<svg xmlns="http://www.w3.org/2000/svg" width="216.402" height="73.645" viewBox="0 0 216.402 73.645">
  <g id="moet_logo" data-name="moet logo" transform="translate(-3353 -1620.115)">
    <path id="Path_3021" data-name="Path 3021" d="M108.583,50.949l1.67,4.121h-3.388Zm-.484-1.8-3.832,8.936h1.383l.788-1.882h4.275l.779,1.882h1.38l-3.806-8.936Zm35.924,0v8.936h5.931V56.925l-4.626.024V54.166h4.064V52.985h-4.064V50.326h4.634v-1.18Zm-84.077-.013v3.854h-5.2V49.133H53.436v8.936h1.309V54.157h5.2v3.912h1.31V49.133Zm10.381,1.816,1.69,4.11H68.628Zm-.485-1.816-3.833,8.936h1.385l.785-1.882h4.3l.743,1.882h1.4l-3.808-8.936Zm9.749,0-.33,8.936h1.314l.164-6.266,2.727,5.008h.85l2.808-4.982.149,6.24,1.3.017-.318-8.937h-.836l-3.538,6.13-3.44-6.145Zm16.033,1.182h1.664a1.972,1.972,0,0,1,2.232,1.921l.016-.012c0,1.157-.872,1.906-2.247,1.917H95.624Zm-1.3-1.2v8.937h1.3V55.3H97.3c2.095,0,3.581-1.094,3.581-3.063s-1.458-3.1-3.53-3.119Zm36.044-.071v9.06h1.282v-6.6l5.672,6.692h.761V49.145l-1.285-.012V55.74l-5.644-6.694Zm-8.757-.016a4.586,4.586,0,1,0-.035,9.165,5.814,5.814,0,0,0,3.376-.964V53.823l-1.23-.008V56.57a4.818,4.818,0,0,1-2.055.433,3.383,3.383,0,1,1,.051-6.762,3.79,3.79,0,0,1,2.267.672l.6-1.043a5,5,0,0,0-2.78-.843c-.063,0-.128,0-.191,0m-76.15-.011a4.584,4.584,0,1,0,0,9.165,4.935,4.935,0,0,0,2.921-.81l-.6-1.032a3.846,3.846,0,0,1-2.222.622,3.364,3.364,0,1,1,0-6.724,3.617,3.617,0,0,1,2.211.661l.609-1.043a4.905,4.905,0,0,0-2.747-.843q-.087,0-.174,0" transform="translate(3365.836 1635.559)" fill="#c19e49"/>
    <path id="Path_3022" data-name="Path 3022" d="M43.925,24.4A1.18,1.18,0,0,1,42.789,25.6a1.207,1.207,0,0,1-1.222-1.181,1.179,1.179,0,0,1,2.358-.028m4.325,0A1.182,1.182,0,0,1,47.114,25.6a1.209,1.209,0,0,1-1.223-1.181A1.18,1.18,0,0,1,48.25,24.4m2.775,15.98v4h-12.2v-.154l1.741-1.394V28.987l-1.777-1.453V27.38H50.432v3.41h-.158l-1.9-2.257H43.62V34.8h3.038l1.33-1.8h.129v4.725h-.129l-1.34-1.773H43.608v7.284H48.9l1.966-2.847ZM161.764,29l1.871-1.461-.016-.15h-5.412v.154L160.341,29l.024,10.452-9.2-12.067H146.84v.154c.255.205,1.257,1.181,2,2l.008,13.213L147,44.224v.153h5.5v-.153L150.3,42.751l-.024-11.635,10.3,13.232H161.8ZM216.4,27.534,214.53,29l.036,15.354h-1.207L203.052,31.116l.028,11.635,2.209,1.473v.153H199.8v-.153l1.842-1.469-.028-13.213a27.5,27.5,0,0,0-2.008-2v-.154h4.324l9.2,12.067L213.1,29l-2.134-1.461v-.154h5.417Zm-91.581,1.378v6.236H117.76V28.912l1.742-1.378V27.38H112.93v.154l1.761,1.386V42.844l-1.741,1.362v.154h6.573v-.138l-1.75-1.386v-6.5h7.049v6.5l-1.749,1.386v.138h6.568v-.154l-1.745-1.362V28.92l1.749-1.386V27.38h-6.567v.154Zm46.5-1.532h-5.842v.154l1.749,1.4.028,13.889-1.741,1.386v.154h6.587a8.409,8.409,0,0,0,8.837-8.76c-.012-5.342-4.411-8.232-9.618-8.221m-1.011,15.8a6.07,6.07,0,0,0,1.481.063c3.413,0,5.845-3.138,5.834-7.5-.008-4.613-3.069-7.267-6.844-7.267-.5,0-.5.032-.5.032Zm-35.32,1.178h-4.375v-.154l1.376-1.381,5.664-15.776h.786l6.2,15.748,1.38,1.412v.154h-6.237v-.154l1.635-1.4-1.854-4.768h-4.587l-1.675,4.725,1.687,1.436Zm2.176-12.476,1.965,5.043h-3.761ZM29.574,43.547c-2.751,0-4.583-3.322-4.583-7.692s1.832-7.614,4.583-7.614,4.584,3.24,4.584,7.6-1.832,7.692-4.584,7.692ZM21.8,35.826c0-4.9,3.478-8.791,7.771-8.791s7.775,3.889,7.775,8.791-3.482,8.869-7.775,8.869S21.8,40.727,21.8,35.826m168.812,7.721c-2.752,0-4.58-3.322-4.58-7.692s1.828-7.614,4.58-7.614,4.583,3.24,4.583,7.614-1.832,7.692-4.583,7.692m-7.771-7.721c0-4.9,3.478-8.791,7.771-8.791s7.775,3.889,7.775,8.791-3.482,8.869-7.775,8.869-7.771-3.968-7.771-8.869M111.27,40.763l.154.164a6.152,6.152,0,0,1-5.978,3.706c-4.5,0-7.547-3.937-7.551-8.823s3.435-8.43,7.672-8.43h4.921v4.654H110.2c-.637-1.115-2.322-3.544-4.878-3.584a3.76,3.76,0,0,0-.786.075c-2.453.426-3.609,3.509-3.289,7.847.346,4.7,2.987,6.692,5.959,6.3a6.779,6.779,0,0,0,4.056-1.9ZM86.664,40.2l1.215,1.472c1.241,1.528,2.182,2.225,2.846,2.379v.295H86.563l-1.608-1.925a6.673,6.673,0,0,1-5.2,2.409,4.535,4.535,0,0,1-4.812-4.546c0-2.7,2.209-4.214,4.061-5.418-1.581-2.024-2.2-3.284-2.2-4.465,0-1.983,1.721-3.484,4.014-3.484,2.19,0,3.785,1.28,3.789,3.15s-1.514,2.873-2.983,3.839l-.032.02,4.4,5.377a8.362,8.362,0,0,0,1-2.618l-1.913-1.673v-.252H90.1v.252l-2.162,1.7A11.8,11.8,0,0,1,86.664,40.2M80.7,27.574c1.109,0,1.773,1,1.777,2.674a3.737,3.737,0,0,1-1.34,3.086c-1.407-1.757-2.009-2.954-2.013-3.985A1.609,1.609,0,0,1,80.7,27.574M77.456,39.42c0,2.322,1.227,3.819,3.109,3.819A4.693,4.693,0,0,0,84.3,41.482l-4.792-6a4.832,4.832,0,0,0-2.048,3.937M56.74,44.361v-.154l1.9-1.42V28.534H55.215l-2.107,2.583h-.18V27.388H67.4v3.728h-.181l-2.107-2.575H61.685V42.794l1.9,1.42v.154Zm-36.351,0v-.2l-1.561-1.428c-.014-.2-.409-3.879-.786-7.38-.327-3.051-.64-5.967-.676-6.332l1.514-1.4v-.233H14.611c-1.56,3.566-3.439,7.792-3.879,8.744L6.038,27.38H1.691v.26L3.2,29.215s-1.411,12.508-1.5,13.5L0,44.163v.2H4.964v-.2L2.948,42.636,4.3,30.711s5.126,9.676,5.283,10.024h.373c.129-.292.725-1.625,1.448-3.247,1.307-2.927,3.033-6.792,3.179-7.14.059.485,1.211,11.961,1.239,12.391l-1.6,1.424v.2Z" transform="translate(3353 1627.438)" fill="#0a0909" fill-rule="evenodd"/>
    <path id="Path_3023" data-name="Path 3023" d="M131.751,16.174V14.406h-.846v1.767h-1.537l1.093-2.834v-.024l-.739-.276L128.4,16.391v.555h2.5v1.088h.846V16.946h.514v-.786Zm-10.429-2.287V13.1l3.541-.012v.458l-2,4.475h-.924v-.036l1.856-4.1Zm-4.273,4.146V13.1l-.522.028-1.749.65h-.024l.267.711,1.18-.393v3.937Zm22.412-4.367-1.21,1.287a1.4,1.4,0,0,1,1.435,1.5c0,1.007-.719,1.629-1.9,1.629a3.017,3.017,0,0,1-1.549-.393l-.062-.043.346-.685.078.059a2.092,2.092,0,0,0,1.156.33c.668,0,1.061-.306,1.061-.85s-.342-.839-.967-.839a1.635,1.635,0,0,0-.648.134l-.079.036-.205-.484,1.385-1.449h-2.045v-.788h3.2Zm-93.392.268v-.713h-3.1v4.69h.786v-1.69H45.8V15.5h-2.04V13.926Zm4.7,3.977h.947L50.607,16.3a1.508,1.508,0,0,0,.921-1.432,1.634,1.634,0,0,0-1.86-1.65h-1.6v4.686h.786V16.493H49.8Zm-1.92-2.123H49.6c.68,0,1.117-.358,1.117-.917s-.393-.942-1.085-.942h-.786Zm7.98,2.123h.846l-2.017-4.654v-.036h-.569l-1.965,4.611-.035.079h.836l.393-.965h2.119Zm-1.447-3.544L54.6,16.253h1.573Zm7.364,2.14V13.223l.775.008v4.724h-.475l-2.8-3.306V17.9h-.786V13.175h.483Zm6.507.413a1.966,1.966,0,0,1-1.1.31,1.665,1.665,0,1,1,0-3.326,1.756,1.756,0,0,1,1.093.326l.055.039.37-.634-.043-.032a2.559,2.559,0,0,0-1.525-.441,2.406,2.406,0,1,0,0,4.807,2.551,2.551,0,0,0,1.525-.429l.043-.028-.362-.626ZM72.4,15.9V17.2h2.366v.709H71.6v-4.69h3.144v.713H72.386v1.244h2.091V15.9Z" transform="translate(3366.54 1624.224)" fill="#c19e49" fill-rule="evenodd"/>
    <path id="Path_3024" data-name="Path 3024" d="M74.118,22.134a.442.442,0,0,0-.129.318.447.447,0,0,0,.447.452h23.1a.45.45,0,0,0,0-.9H74.432a.45.45,0,0,0-.314.13m1.174-2.472H76.8l.016,1.106H75.292Zm9.158,0H87.5l.008,1.106H84.45Zm10.684,0h1.52v1.106h-1.52Zm-17.212.577.062-.028-.062-.032,1.368-.656,1.38.656-.063.032.063.028-1.38.665Zm13.352,0,.063-.028-.063-.032,1.376-.656,1.372.656-.062.032.062.028L92.65,20.9Zm-8.868.709a.733.733,0,1,1,.731-.736l.016-.02a.732.732,0,0,1-.734.756h-.013m6.429-.452a.735.735,0,1,1,1.412-.284l.029-.018a.739.739,0,0,1-.216.543.725.725,0,0,1-.543.212h-.007a.731.731,0,0,1-.676-.452M74.623,21.512H97.351V18.9l-22.729-.014Zm-.187-4.087a.449.449,0,0,0-.447.454.44.44,0,0,0,.447.444h23.1a.449.449,0,0,0,0-.9Zm-3.6-6.228v0a.735.735,0,1,0,.735-.736.737.737,0,0,0-.735.736m29.6-.736v0a.725.725,0,1,0,.522.212.736.736,0,0,0-.522-.212h0M100,9a.817.817,0,1,0,.756-.506A.819.819,0,0,0,100,9M70.665,8.724a.82.82,0,0,0,1.159,1.16.809.809,0,0,0,.237-.577.816.816,0,0,0-1.4-.583m7.5,3.572c-.122-.393-.07-.725.114-.788s.433.181.554.539v-.02c.11.363.071.744-.113.807a.2.2,0,0,1-.068.011c-.174,0-.38-.2-.487-.55m15.026.437v-.02c-.184-.064-.235-.406-.113-.768s.372-.626.559-.543.235.425.113.786c-.109.326-.321.552-.5.552a.229.229,0,0,1-.059-.008m-6.846-1.706v0Zm-.708.02c0-.383.156-.689.354-.689s.351.291.354.68-.159.7-.354.7-.354-.31-.354-.693m-.213-2.459a1.819,1.819,0,0,0-.848-.076c-.231.043-.137.438-.051.7a8.7,8.7,0,0,0,.543,1.064c.079.133-.025.429-.025.429a5.939,5.939,0,0,0-.957-.7c-.4-.2-.626-.145-.685-.079-.192.237.024,1,.024,1a1.013,1.013,0,0,0,.1,1.256c-.129.367.024,1.1.189,1.1a1.5,1.5,0,0,0,.959-.473,2.04,2.04,0,0,0,.293-.318c.107-.135.195-.246.3-.264a.991.991,0,0,1,.479.116,2.422,2.422,0,0,1-.6,1.574,1.788,1.788,0,0,1-1.18.429,1.281,1.281,0,0,1-1.4-.842.982.982,0,0,0,.393-1.056.891.891,0,0,0-.864-.788.789.789,0,0,0-.51.373.8.8,0,0,0-.072.627,1.136,1.136,0,0,0,.681.98,1.044,1.044,0,0,1-.393.681,1.31,1.31,0,0,1-1.01.324c-.885-.012-1.608-1.37-1.608-1.37s.17-.225.318-.225a.719.719,0,0,1,.331.187,2.719,2.719,0,0,0,.3.208c.36.2.765.251.846.142.133-.189.007-.713-.163-.977a.881.881,0,0,0-.341-1.145c.03-.442-.17-.944-.3-.973a.72.72,0,0,0-.542.314,3.563,3.563,0,0,0-.433.807.877.877,0,0,1-.16-.393,5.957,5.957,0,0,0,.184-1.074c-.032-.263-.095-.642-.283-.618A1.539,1.539,0,0,0,78.3,9.8a.852.852,0,0,0-.48,0h-.038a.79.79,0,0,0-.367.3,1.54,1.54,0,0,0-.672.181c-.158.1.036.429.176.654a7.2,7.2,0,0,0,.756.7.791.791,0,0,1,.107.393,5.28,5.28,0,0,0-.853-.239c-.355-.047-.6.054-.6.1-.047.3.393.786.393.786-.122.706.176.949.547,1.024,0,.371.254.839.393.839.2,0,.366-.314.455-.516a2.635,2.635,0,0,0,.11-.308.683.683,0,0,1,.176-.358.63.63,0,0,1,.393,0s.448,1.716-.468,2.042a1.252,1.252,0,0,1-1.5-.417s.259-.343-.075-1c-.2-.4-.633-.626-.9-.479-.212.117-.356.476-.125,1.01.291.683.806.612.806.612a1.2,1.2,0,0,1-.2.736.955.955,0,0,1-.928.456,1.485,1.485,0,0,1-1.148-.748c-.012-.118.15-.208.577-.208a.785.785,0,0,1,.661.46c.026.075.085.063.113,0a.978.978,0,0,0,0-.788,1.893,1.893,0,0,0-.435-.48,1.162,1.162,0,0,0-.247-.917.831.831,0,0,0-.6-.234,1.741,1.741,0,0,0-.239-.519.638.638,0,0,0-.53-.314c-.06,0-.1.047-.035.107.22.184.105.68,0,.846l-.288.331s-.444-.473-.754-.788a1.184,1.184,0,0,0-.944-.458.72.72,0,0,0-.689.426,1.069,1.069,0,0,1,.857.233c.276.2.955.861.955.861-.062.922.249,1.623,1.152,1.71l.48.638c-.156.05-.451.393-.272.393H97.96c.181,0-.109-.322-.263-.393l.48-.638c.909-.087,1.218-.772,1.152-1.71,0,0,.68-.665.955-.861a1.069,1.069,0,0,1,.857-.233v-.02a.719.719,0,0,0-.689-.452,1.156,1.156,0,0,0-.943.456c-.31.316-.755.788-.755.788l-.283-.331c-.114-.164-.228-.661,0-.846.07-.059.028-.107-.035-.107a.638.638,0,0,0-.531.314,1.742,1.742,0,0,0-.239.519.833.833,0,0,0-.6.234,1.185,1.185,0,0,0-.249.917,1.833,1.833,0,0,0-.431.48.947.947,0,0,0,0,.788c.024.063.083.075.109,0a.784.784,0,0,1,.664-.46c.425-.008.579.089.579.208a1.491,1.491,0,0,1-1.151.748.941.941,0,0,1-.925-.456,1.182,1.182,0,0,1-.205-.736s.516.071.806-.61c.235-.535.087-.894-.125-1.011-.271-.146-.7.087-.9.479-.334.663-.071,1.006-.071,1.006a1.259,1.259,0,0,1-1.508.416c-.917-.326-.468-2.042-.468-2.042a.661.661,0,0,1,.393,0c.083.047.128.195.181.366a2.711,2.711,0,0,0,.105.3c.091.2.255.516.456.516.125,0,.37-.468.393-.839.37-.075.667-.318.546-1.024,0,0,.452-.467.393-.786-.012-.047-.249-.149-.6-.1a5.363,5.363,0,0,0-.852.239.791.791,0,0,1,.1-.393,6.713,6.713,0,0,0,.759-.7c.141-.225.333-.552.176-.654a1.54,1.54,0,0,0-.672-.181.814.814,0,0,0-.366-.3h-.039a.829.829,0,0,0-.48,0,1.526,1.526,0,0,0-.64-.268c-.192-.024-.255.355-.287.618a6,6,0,0,0,.185,1.076.889.889,0,0,1-.162.392,3.512,3.512,0,0,0-.433-.807.723.723,0,0,0-.542-.314c-.125.029-.33.531-.295.973a.881.881,0,0,0-.342,1.145c-.158.264-.295.788-.158.977.078.109.48.059.842-.142a2.551,2.551,0,0,0,.276-.2c.142-.11.263-.205.356-.2.15.016.318.225.318.225s-.719,1.37-1.6,1.37a1.3,1.3,0,0,1-1.013-.324,1.046,1.046,0,0,1-.395-.681,1.136,1.136,0,0,0,.681-.98.79.79,0,0,0-.6-.953.9.9,0,0,0-.864.788.984.984,0,0,0,.393,1.056,1.283,1.283,0,0,1-1.4.842,1.776,1.776,0,0,1-1.178-.429,2.419,2.419,0,0,1-.606-1.574.974.974,0,0,1,.48-.116c.1.018.187.128.292.259a1.964,1.964,0,0,0,.3.324,1.477,1.477,0,0,0,.956.473c.164-.012.318-.736.188-1.1a1.021,1.021,0,0,0,.107-1.256s.2-.763,0-1c-.051-.066-.287-.118-.681.079a6.069,6.069,0,0,0-.959.7s-.1-.3-.024-.429a8.71,8.71,0,0,0,.543-1.064c.087-.267.18-.661-.051-.7a1.805,1.805,0,0,0-.848.076.788.788,0,0,0-1.086,0m7.385-.28-.011.026.016-.02-.005-.007m-15.1-.675v.009a.76.76,0,1,0,.951.463.747.747,0,0,0-.709-.512.764.764,0,0,0-.242.039M93.9,7.6a.811.811,0,0,0-.456,1.257.73.73,0,0,0,1.269-.25A.733.733,0,0,0,93.9,7.6M71.145,7.405a.746.746,0,0,0,.727.744l.012,0a.744.744,0,0,0,.008-1.487h0a.743.743,0,0,0-.743.74m28.226,0,.016,0a.735.735,0,1,0,.73-.736h0a.743.743,0,0,0-.742.74m-23.018-.9v.018l.016-.021Zm8.991.636A.657.657,0,1,0,86,6.489a.657.657,0,0,0-.656.658M95.7,6.657a3.305,3.305,0,0,1,3.143,3.315,5.871,5.871,0,0,1-.277,1.665l-.1.267a.823.823,0,0,1,.447.442.169.169,0,0,1,.028-.087c.729-2.071.555-3.732-.494-4.807a4.808,4.808,0,0,0-2.9-1.348.958.958,0,0,1,.154.552m2.451-.594h0v0ZM73.586,7.255c-1.073,1.051-1.285,2.709-.61,4.8l.028.087a.853.853,0,0,1,.456-.43.365.365,0,0,0-.029-.105c-.014-.038-.032-.088-.053-.159a6.226,6.226,0,0,1-.241-1.677A3.32,3.32,0,0,1,76.353,6.51a.987.987,0,0,1,.164-.53,4.808,4.808,0,0,0-2.931,1.276m4.158-1.386a.771.771,0,1,0,.054,0h-.054m15.976.206a.761.761,0,0,0-.229.538l.012.008a.759.759,0,1,0,.759-.764h-.009a.757.757,0,0,0-.533.218M72.45,6.068a.7.7,0,0,0,.7.693v.007a.7.7,0,1,0-.7-.7m26.14-.654a.7.7,0,0,0-.234,1.14A.7.7,0,0,0,99.5,6.336a.7.7,0,0,0-.91-.922M85.778,5.131A.566.566,0,0,0,86,6.22v.008a.571.571,0,1,0,0-1.141.562.562,0,0,0-.221.045m10.83.171v0a.672.672,0,1,0,.676-.665.669.669,0,0,0-.676.665M74.467,4.678a.674.674,0,0,0,.254,1.3v.005a.677.677,0,1,0-.254-1.3m1.661-.333a.634.634,0,0,0,.245,1.222v.02a.646.646,0,1,0,0-1.291.655.655,0,0,0-.249.05m19.489-.058a.64.64,0,1,0,.011,1.28v0a.642.642,0,0,0-.008-1.284h0M77.663,5a.729.729,0,0,0,.727.709v.02A.728.728,0,1,0,77.663,5M92.9,4.992a.728.728,0,0,0,.727.721v.007a.728.728,0,1,0-.727-.727M85.072,4.24a5.245,5.245,0,0,1-2.083.395h-.324a3.663,3.663,0,0,0-3.342,1.28,2.608,2.608,0,0,0-.2,2.361.9.9,0,0,1,.46-.346,2.171,2.171,0,0,1,.228-1.779A3.082,3.082,0,0,1,82.58,5.118h.01l-.007.018h.487a4.161,4.161,0,0,0,1.344-.2l.043-.02a2.428,2.428,0,0,0,.759-.681Zm1.739-.059a2.344,2.344,0,0,0,.742.7.209.209,0,0,0,.039.024,4.146,4.146,0,0,0,1.344.229h.484A3.1,3.1,0,0,1,92.171,6.2a2.164,2.164,0,0,1,.185,1.787.906.906,0,0,1,.458.321,2.613,2.613,0,0,0-.157-2.336c-.809-1.265-2.255-1.319-3.309-1.358h-.322a5.19,5.19,0,0,1-2.075-.433ZM86,3.922a.456.456,0,1,0,.043,0l-.043,0m-7.05-.008a.691.691,0,0,0,.69.669v.024a.693.693,0,1,0-.69-.693M91.675,3.9a.7.7,0,0,0,.69.68V4.6a.693.693,0,1,0-.69-.7m-7.842-.949a.424.424,0,1,0,.041,0l-.041,0m3.885.425v0a.444.444,0,0,0,.752.331.445.445,0,0,0-.3-.765h-.009a.442.442,0,0,0-.439.43m-7.2.1a.609.609,0,0,0,.183.431.6.6,0,0,0,.435.167V4.1a.6.6,0,0,0-.014-1.2h-.007a.6.6,0,0,0-.6.577M88.9,3.386a.544.544,0,0,0,.538.54v.008a.544.544,0,0,0,.535-.548.539.539,0,0,0-1.073,0m1.746-.451a.594.594,0,0,0,.224,1.144v.008a.6.6,0,1,0-.224-1.152m-8.089-.071a.54.54,0,0,0,.011,1.08.547.547,0,0,0,.534-.548.539.539,0,0,0-.538-.531h-.007M86,0a1.748,1.748,0,1,0,1.746,1.744v-.02A1.748,1.748,0,0,0,86,0Z" transform="translate(3375.19 1620.115)" fill="#c19e49"/>
  </g>
</svg>
