<svg xmlns="http://www.w3.org/2000/svg" width="1920.001" height="1839.004" viewBox="0 0 1920.001 1839.004">
  <path id="testimomials_background" data-name="testimomials background" d="M0,1439H399.9a406.376,406.376,0,0,0-40.8,2.065,400.923,400.923,0,0,0-39.716,6.061c-12.887,2.638-25.785,5.953-38.335,9.857-12.408,3.86-24.773,8.385-36.75,13.451A401.176,401.176,0,0,0,31.434,1683.306c-5.065,11.976-9.59,24.34-13.451,36.751-3.9,12.55-7.22,25.447-9.857,38.334a401.216,401.216,0,0,0-6.061,39.716A406.588,406.588,0,0,0,0,1839Zm0,0V400H1520c220.914,0,400,179.086,400,400v639ZM0,.1H0L0,0H0V.1A405.805,405.805,0,0,0,2.066,40.9,401.137,401.137,0,0,0,8.127,80.614c2.637,12.886,5.954,25.783,9.857,38.334,3.86,12.41,8.385,24.774,13.451,36.751a400.048,400.048,0,0,0,36.88,67.946,402.871,402.871,0,0,0,48.843,59.2,402.923,402.923,0,0,0,59.2,48.844A400.108,400.108,0,0,0,244.3,368.566c11.977,5.066,24.341,9.591,36.751,13.451,12.55,3.9,25.448,7.22,38.334,9.856a400.841,400.841,0,0,0,39.717,6.061c13.118,1.333,26.5,2.027,39.777,2.064L0,400Z" fill="#fbc120"/>
</svg>
