<svg xmlns="http://www.w3.org/2000/svg" width="100" height="80" viewBox="0 0 100 80">
  <g id="twitter" transform="translate(-1685 -2905)">
    <g id="Rectangle_2268" data-name="Rectangle 2268" transform="translate(1685 2905)" fill="none" stroke="#fff" stroke-width="0.5">
      <rect width="100" height="80" rx="40" stroke="none"/>
      <rect x="0.25" y="0.25" width="99.5" height="79.5" rx="39.75" fill="none"/>
    </g>
    <path id="Icon_awesome-twitter" data-name="Icon awesome-twitter" d="M32.3,10.668c.023.32.023.64.023.959,0,9.754-7.424,20.992-20.992,20.992A20.85,20.85,0,0,1,0,29.307a15.263,15.263,0,0,0,1.782.091,14.776,14.776,0,0,0,9.16-3.152,7.391,7.391,0,0,1-6.9-5.117,9.3,9.3,0,0,0,1.393.114,7.8,7.8,0,0,0,1.942-.251,7.379,7.379,0,0,1-5.916-7.241V13.66A7.431,7.431,0,0,0,4.8,14.6,7.389,7.389,0,0,1,2.513,4.728a20.972,20.972,0,0,0,15.213,7.721,8.329,8.329,0,0,1-.183-1.69A7.385,7.385,0,0,1,30.312,5.711a14.526,14.526,0,0,0,4.683-1.782,7.358,7.358,0,0,1-3.244,4.066A14.791,14.791,0,0,0,36,6.853a15.86,15.86,0,0,1-3.7,3.815Z" transform="translate(1717 2927)" fill="#fff"/>
  </g>
</svg>
